<svg xmlns="http://www.w3.org/2000/svg" width="30.36" height="30.36" viewBox="0 0 30.36 30.36"><g id="evaluation_chart" transform="translate(-8.64 -9)"><g id="evaluation_chart_1_"><path id="Path_2396" data-name="Path 2396" d="M39,39H9V9M21,23l3,3,6.5-6.5M26,12A10,10,0,1,0,36,22,10,10,0,0,0,26,12ZM38,34l-4.933-4.934" fill="none" stroke="#198038" stroke-linejoin="round" stroke-miterlimit="10" stroke-width="0.72"></path><path id="Path_2397" data-name="Path 2397" d="M12,32.5a.5.5,0,1,1-.5-.5.5.5,0,0,1,.5.5" fill="#198038"></path><path id="Path_2398" data-name="Path 2398" d="M14,30.5a.5.5,0,1,1-.5-.5.5.5,0,0,1,.5.5" fill="#198038"></path><path id="Path_2399" data-name="Path 2399" d="M16,28.5a.5.5,0,1,1-.5-.5.5.5,0,0,1,.5.5" fill="#198038"></path><path id="Path_2400" data-name="Path 2400" d="M19,25.5a.5.5,0,1,1-.5-.5.5.5,0,0,1,.5.5" fill="#198038"></path><path id="Path_2401" data-name="Path 2401" d="M33,17.5a.5.5,0,1,1-.5-.5.5.5,0,0,1,.5.5" fill="#198038"></path><path id="Path_2402" data-name="Path 2402" d="M36,14.5a.5.5,0,1,1-.5-.5.5.5,0,0,1,.5.5" fill="#198038"></path><path id="Path_2403" data-name="Path 2403" d="M38,12.5a.5.5,0,1,1-.5-.5.5.5,0,0,1,.5.5" fill="#198038"></path></g></g></svg>