<svg xmlns="http://www.w3.org/2000/svg" xmlns:xlink="http://www.w3.org/1999/xlink" xmlns:svgjs="http://svgjs.com/svgjs" id="SvgjsSvg1001" width="288" height="288"><defs id="SvgjsDefs1002"></defs><g id="SvgjsG1008" transform="matrix(0.9167,0,0,0.9167,11.995198728942881,11.995200000000011)"><svg xmlns="http://www.w3.org/2000/svg" width="288" height="288" viewBox="0 0 64 64"><defs><clipPath id="a"><rect width="64" height="64" fill="#198038" stroke="#198038" data-name="Rectangle 2110" transform="translate(111 3457)" class="colorfff svgShape colorStroke00539a svgStroke"></rect></clipPath></defs><g clip-path="url(#a)" data-name="Mask Group 7" transform="translate(-111 -3457)" fill="#000000" class="color000 svgShape"><path fill="none" stroke="#198038" stroke-linejoin="round" stroke-miterlimit="10" stroke-width="1.5" d="M25,31.233V58.317M50,18.75A31.25,31.25,0,1,0,81.25,50,31.251,31.251,0,0,0,50,18.75ZM21.248,62.267,44.7,75.808m1.546,5.225L69.7,67.492M75,68.767V41.683m3.752-3.95L55.3,24.192m-25,8.317L53.752,18.967m.415,20.617H39.583V54.167H54.167ZM45.833,54.167v6.25H60.417V45.833h-6.25" transform="translate(93 3439)" class="colorStroke00539a svgStroke"></path></g></svg></g></svg>